<svg xmlns="http://www.w3.org/2000/svg" viewBox="0 0 50 50">
  <path d="M33.601563 42C29.46875 42 27 39.160156 27 34.398438C27 30.835938 27.472656 26.726563 28.066406 21.527344C28.296875 19.515625 28.546875 17.347656 28.792969 15L24.105469 15L23.871094 17.394531C22.117188 35.300781 21.460938 42 14.800781 42C12.789063 42 10 40.261719 10 37C10 34.574219 11.105469 33.769531 12.273438 32.917969C14.171875 31.535156 17.320313 29.242188 18.609375 15L17 15C14.722656 15 13.101563 16.121094 11.894531 18.53125C11.359375 19.402344 10.5 20.378906 8.714844 19.84375C8.441406 19.761719 8.21875 19.570313 8.097656 19.3125C7.976563 19.058594 7.96875 18.761719 8.078125 18.5C9.074219 16.109375 10.082031 14 11.152344 11.769531L11.199219 11.667969C12.128906 9.804688 13.957031 8 25 8L41 8C41.554688 8 42 8.449219 42 9L42 14C42 14.550781 41.554688 15 41 15L34.914063 15C33.933594 26.101563 33.609375 32.761719 34.746094 34.003906C34.914063 34.191406 35.175781 34.300781 36 34.300781C37.332031 34.300781 38.5 32.242188 38.5 31C38.5 30.445313 38.945313 30 39.5 30L41 30C41.554688 30 42 30.445313 42 31C42 38.300781 39.175781 42 33.601563 42Z" fill="#3EDCE9" />
</svg>